<?xml version="1.0" encoding="utf-8"?>
<!-- Generator: Adobe Illustrator 26.0.3, SVG Export Plug-In . SVG Version: 6.00 Build 0)  -->
<svg version="1.1" id="Layer_1" xmlns="http://www.w3.org/2000/svg" xmlns:xlink="http://www.w3.org/1999/xlink" x="0px" y="0px"
	 viewBox="0 0 330 113.3" style="enable-background:new 0 0 330 113.3;" xml:space="preserve">
<style type="text/css">
	.st0{fill:#76B82A;}
	.st1{fill:#A42530;}
	.st2{fill:#FFFFFF;}
</style>
<g>
	<path class="st0" d="M79.7,17.2L76.6,0.9c-0.1-0.6-0.7-1-1.2-0.9C63.7,1.5,54.7,8.4,49.5,19.9c-2.4,5.4-3.9,11.1-4.4,17
		c0,0.5,0.3,1,0.8,1.1c0.1,0,0.2,0,0.3,0c0.4,0,0.8-0.2,1-0.6c9.9-19,31.1-19,31.3-19c0.3,0,0.7-0.1,0.9-0.4
		C79.7,17.8,79.8,17.5,79.7,17.2z"/>
	<g>
		<path class="st1" d="M51.3,112.2c-6.6,0-12-5.3-12.1-11.9c0-0.6,0-1.1,0.1-1.7c-5.7-1-9.8-5.9-9.9-11.7c0-1.3,0.2-2.5,0.6-3.7
			c-5.7-1-9.9-5.9-9.9-11.7c0-1.4,0.3-2.9,0.8-4.2c-6.2-0.5-11-5.6-11.1-11.9c0-1.3,0.2-2.7,0.7-3.9C4.1,50.1,0,43.8,1.3,37.3
			c1.2-5.6,6.2-9.5,11.9-9.4c3.7,0,7.2,1.7,9.5,4.6c4.2-5.3,11.9-6.1,17.1-1.9c0.7,0.6,1.4,1.2,1.9,1.9c4.2-5.3,11.9-6.1,17.1-1.9
			c0.7,0.6,1.4,1.2,1.9,1.9c4.2-5.3,11.9-6.1,17.1-1.9c0.7,0.6,1.4,1.2,1.9,1.9c2.3-2.9,5.8-4.6,9.5-4.6c6.6-0.1,12,5.2,12.1,11.7
			c0.1,6.3-4.7,11.5-11,12.1c0.4,1.2,0.6,2.4,0.6,3.7C91.2,61,87.2,65.9,81.6,67c0.6,1.4,0.9,2.9,0.9,4.4
			c-0.1,5.9-4.5,10.9-10.3,11.8c0.4,1.2,0.6,2.4,0.6,3.6c0,5.6-4,10.5-9.5,11.6c0.1,0.6,0.1,1.2,0.1,1.8
			C63.3,106.9,57.9,112.2,51.3,112.2z"/>
		<path class="st2" d="M89.5,29c6-0.1,10.9,4.7,11,10.6c0.1,6-4.7,10.9-10.6,11c-0.1,0-0.2,0-0.4,0c-0.2,0-0.3,0-0.5,0
			c0.7,1.5,1.1,3.1,1.1,4.8c0,5.7-4.5,10.4-10.2,10.8c0.9,1.6,1.4,3.5,1.4,5.3c0,5.9-4.9,10.8-10.8,10.8c0.7,1.4,1.1,3,1.1,4.6
			c0,5.5-4.2,10.1-9.7,10.7c0.2,0.9,0.4,1.8,0.4,2.7c-0.1,6.1-5.1,10.9-11.2,10.8c-5.9-0.1-10.7-4.9-10.8-10.8
			c0-0.9,0.1-1.8,0.3-2.6c-5.7-0.4-10-5.1-10.1-10.8c0-1.6,0.4-3.2,1.1-4.6c-5.8-0.3-10.3-5-10.4-10.8c0-1.9,0.5-3.7,1.4-5.3
			c-0.2,0-0.5,0-0.7,0c-6,0.1-11-4.8-11-10.8c0,0,0,0,0,0c0-1.7,0.4-3.3,1.1-4.8c-5.9-0.5-10.4-5.8-9.8-11.7c0.5-5.7,5.3-10,11-9.9
			c3.9,0,7.5,2.1,9.5,5.4c3.1-5.3,9.9-7,15.2-3.9c1.6,0.9,2.9,2.3,3.9,3.9c3.1-5.3,9.9-7,15.2-3.9c1.6,0.9,2.9,2.3,3.9,3.9
			c3.1-5.3,9.9-7,15.2-3.9c1.6,0.9,2.9,2.3,3.9,3.9C81.9,31.1,85.6,29,89.5,29 M89.5,26.8c-3.6,0-7,1.5-9.5,4
			c-5.1-5.3-13.5-5.4-18.8-0.3c-0.1,0.1-0.2,0.2-0.3,0.3c-5.1-5.3-13.5-5.4-18.8-0.3c-0.1,0.1-0.2,0.2-0.3,0.3
			c-5.1-5.3-13.5-5.4-18.8-0.3c-0.1,0.1-0.2,0.2-0.3,0.3c-2.5-2.6-5.9-4-9.5-4C6,26.7,0.1,32.4,0,39.6c-0.1,5.7,3.6,10.8,9.1,12.6
			c-0.3,1-0.4,2.1-0.4,3.2c0,6.3,4.5,11.7,10.7,12.8c-0.3,1.1-0.4,2.2-0.4,3.3c0,5.9,4,11,9.7,12.5c-0.2,0.9-0.3,1.9-0.3,2.9
			c0.1,5.9,4.1,11,9.8,12.6c0,0.3,0,0.6,0,0.9c0,7.3,5.9,13.2,13.2,13.2s13.2-5.9,13.2-13.2c0-0.3,0-0.6,0-1
			c5.5-1.6,9.3-6.7,9.4-12.4c0-0.9-0.1-1.9-0.3-2.8c5.8-1.4,10-6.6,10-12.6c0-1.2-0.2-2.5-0.5-3.7c5.5-1.7,9.3-6.7,9.3-12.4
			c0-0.9-0.1-1.9-0.3-2.8c7.1-1.3,11.8-8,10.5-15.1C101.4,31.2,95.9,26.7,89.5,26.8L89.5,26.8z"/>
	</g>
	<path class="st2" d="M63.1,77.3c-1.1,0.9-2.3,1.6-3.6,2.3c-8.6,4.1-18.7,1.1-22.4-6.7l0,0c6,3,13.2,3,19.2,0c0.6-0.3,1.2-0.6,1.8-1
		C59.3,74.1,61,76,63.1,77.3z"/>
	<circle class="st2" cx="36.6" cy="55.2" r="7.1"/>
	<circle class="st2" cx="62.8" cy="55.2" r="7.1"/>
	<circle class="st1" cx="40.5" cy="50.7" r="4.5"/>
	<circle class="st1" cx="67.8" cy="50.6" r="4.5"/>
	<g>
		<path class="st1" d="M108,90h-8.1V59.3h7.6v4.4c0.9-1.6,2.1-3,3.5-4.1c1.1-0.7,2.3-1,3.5-1c1.9,0,3.7,0.5,5.4,1.5l-2.5,7.1
			c-1.1-0.8-2.4-1.3-3.8-1.3c-1,0-2.1,0.3-2.9,0.9c-1,0.9-1.6,2.1-1.9,3.4c-0.5,1.6-0.7,5.1-0.7,10.3L108,90z"/>
		<path class="st1" d="M126.4,68.7l-7.4-1.3c0.6-2.6,2.1-5,4.3-6.6c2-1.4,5-2.1,9-2.1c3.6,0,6.3,0.4,8.1,1.3
			c1.6,0.7,2.9,1.8,3.7,3.3c0.7,1.3,1.1,3.7,1.1,7.3l-0.1,9.5c-0.1,2,0.1,4,0.4,6c0.3,1.4,0.8,2.8,1.5,4.1h-8
			c-0.2-0.5-0.5-1.3-0.8-2.4c-0.1-0.5-0.2-0.8-0.3-1c-1.3,1.3-2.8,2.3-4.5,3c-1.6,0.7-3.3,1-5.1,1c-2.7,0.2-5.4-0.8-7.5-2.6
			c-1.8-1.7-2.8-4.1-2.7-6.5c0-1.6,0.4-3.2,1.2-4.6c0.8-1.4,2-2.4,3.5-3.1c2.1-0.9,4.2-1.5,6.5-1.9c2.7-0.4,5.3-1.1,7.9-2v-0.8
			c0.1-1.2-0.3-2.5-1.2-3.3c-0.8-0.7-2.2-1-4.4-1c-1.2-0.1-2.4,0.2-3.4,0.9C127.5,66.4,126.8,67.5,126.4,68.7z M137.3,75.3
			c-1.6,0.5-3.3,0.9-5,1.2c-1.5,0.2-3,0.7-4.4,1.4c-1,0.6-1.6,1.7-1.6,2.9c0,1.1,0.5,2.2,1.3,3c0.9,0.8,2,1.3,3.2,1.2
			c1.5,0,3-0.5,4.2-1.4c0.9-0.7,1.6-1.6,1.9-2.7c0.3-1.3,0.4-2.6,0.3-4L137.3,75.3z"/>
		<path class="st1" d="M147.5,81.2l8.2-1.2c0.2,1.4,1,2.7,2.1,3.6c1.3,0.9,2.9,1.3,4.5,1.2c1.7,0.1,3.3-0.3,4.8-1.2
			c0.7-0.5,1.1-1.3,1.1-2.2c0-0.6-0.2-1.1-0.6-1.5c-0.8-0.6-1.7-0.9-2.7-1.1c-6.6-1.4-10.7-2.8-12.5-4c-2.3-1.5-3.7-4.1-3.6-6.9
			c0-2.6,1.1-5.1,3.2-6.7c2.1-1.8,5.4-2.7,9.8-2.7c4.2,0,7.3,0.7,9.4,2.1c2.1,1.4,3.6,3.6,4.2,6.1l-7.7,1.4
			c-0.3-1.1-0.9-2.1-1.9-2.8c-1.2-0.7-2.5-1-3.9-1c-1.6-0.1-3.2,0.2-4.6,0.9c-0.6,0.3-0.9,1-0.9,1.6c0,0.6,0.3,1.1,0.8,1.5
			c0.7,0.5,3.3,1.3,7.6,2.3c4.3,1,7.4,2.2,9.1,3.6c1.7,1.5,2.7,3.8,2.5,6.1c0,2.8-1.3,5.5-3.5,7.3c-2.4,2-5.8,3-10.5,3
			c-4.2,0-7.5-0.8-9.9-2.5C149.9,86.5,148.2,84.1,147.5,81.2z"/>
		<path class="st1" d="M178.6,59.3h7.6v4.5c1-1.6,2.4-2.9,4-3.8c1.7-1,3.6-1.5,5.6-1.4c3.5,0,6.8,1.5,9.1,4.2
			c2.5,2.8,3.7,6.7,3.7,11.7c0,5.1-1.3,9.1-3.8,12c-2.2,2.7-5.6,4.3-9.1,4.3c-1.6,0-3.2-0.3-4.6-1c-1.6-0.9-3.1-2.1-4.4-3.5v15.5
			h-8.1V59.3z M186.6,74.1c0,3.5,0.7,6,2.1,7.7c1.2,1.6,3,2.5,5,2.5c1.8,0,3.6-0.8,4.7-2.3c1.3-1.5,1.9-4,1.9-7.5
			c0-3.2-0.6-5.6-1.9-7.2c-1.1-1.5-2.9-2.4-4.8-2.3c-1.9,0-3.7,0.8-4.9,2.3C187.3,68.8,186.6,71.1,186.6,74.1L186.6,74.1z"/>
		<path class="st1" d="M211.8,55.1v-7.5h8.1v7.5H211.8z M211.8,90V59.3h8.1V90L211.8,90z"/>
		<path class="st0" d="M225.3,90V47.6h8.1v22.5l9.5-10.8h10l-10.5,11.2L253.7,90H245l-7.7-13.8l-3.8,4V90L225.3,90z"/>
		<path class="st0" d="M256.1,55.1v-7.5h8.1v7.5H256.1z M256.1,90V59.3h8.1V90L256.1,90z"/>
		<path class="st0" d="M297.6,90H290v-4.5c-1.1,1.7-2.7,3-4.4,3.9c-1.6,0.8-3.4,1.3-5.2,1.3c-3.5,0-6.8-1.6-9.1-4.3
			c-2.5-2.8-3.8-6.8-3.8-11.9c0-5.2,1.2-9.2,3.7-11.9c2.3-2.7,5.7-4.2,9.3-4.1c3.5,0,6.7,1.6,8.9,4.3V47.6h8.1L297.6,90z M275.9,74
			c0,3.3,0.5,5.7,1.4,7.1c1.1,2,3.2,3.2,5.5,3.2c1.9,0,3.6-0.9,4.8-2.4c1.3-1.6,2-4,2-7.1c0-3.5-0.6-6.1-1.9-7.6
			c-1.2-1.5-3-2.4-4.9-2.3c-1.9,0-3.7,0.8-4.9,2.3C276.5,68.6,275.9,70.9,275.9,74z"/>
		<path class="st0" d="M330,90h-7.6v-4.5c-1.1,1.7-2.7,3-4.4,3.9c-1.6,0.8-3.4,1.3-5.2,1.3c-3.5,0-6.8-1.6-9.1-4.3
			c-2.5-2.8-3.8-6.8-3.8-11.9c0-5.2,1.2-9.2,3.7-11.9c2.3-2.7,5.7-4.2,9.3-4.1c3.5,0,6.7,1.6,8.9,4.3V47.6h8.1V90z M308.3,74
			c0,3.3,0.5,5.7,1.4,7.1c1.1,2,3.2,3.2,5.5,3.2c1.9,0,3.6-0.9,4.8-2.4c1.3-1.6,2-4,2-7.1c0-3.5-0.6-6.1-1.9-7.6
			c-1.2-1.5-3-2.4-4.9-2.3c-1.9,0-3.7,0.8-4.8,2.3C309,68.6,308.3,70.9,308.3,74z"/>
	</g>
</g>
</svg>
